<svg width="182" height="61" viewBox="0 0 182 61" fill="none" xmlns="http://www.w3.org/2000/svg">
<path d="M167.073 0.000196245H15.2097C14.6561 0.000196245 14.1092 0.000196245 13.5571 0.00321539C13.095 0.00623454 12.6365 0.0150052 12.1699 0.022387C11.1562 0.0343153 10.145 0.123493 9.14487 0.289144C8.14618 0.458401 7.17876 0.777499 6.27536 1.23565C5.37305 1.69767 4.54859 2.29802 3.83188 3.01492C3.11141 3.7298 2.51085 4.55611 2.05328 5.46207C1.59444 6.36623 1.27628 7.33512 1.10979 8.33527C0.941717 9.33417 0.851275 10.3446 0.839276 11.3574C0.825267 11.8203 0.823788 12.2846 0.816406 12.7475V47.6402C0.823788 48.1089 0.825267 48.563 0.839276 49.0319C0.851279 50.0447 0.941721 51.0551 1.10979 52.0539C1.27582 53.0546 1.594 54.0241 2.05328 54.9286C2.51064 55.8316 3.11129 56.6546 3.83188 57.3655C4.54587 58.0856 5.37087 58.6863 6.27536 59.1448C7.17876 59.6042 8.14606 59.9252 9.14487 60.0971C10.1451 60.2614 11.1563 60.3506 12.1699 60.3639C12.6365 60.3742 13.095 60.3801 13.5571 60.3801C14.1092 60.3831 14.6562 60.3831 15.2097 60.3831H167.073C167.615 60.3831 168.167 60.3831 168.709 60.3801C169.169 60.3801 169.641 60.3742 170.101 60.3639C171.113 60.3513 172.122 60.2621 173.12 60.0971C174.122 59.924 175.093 59.6031 176.001 59.1448C176.904 58.6861 177.729 58.0853 178.442 57.3655C179.161 56.6518 179.763 55.8294 180.226 54.9286C180.682 54.0234 180.997 53.0541 181.16 52.0539C181.329 51.0549 181.422 50.0448 181.44 49.0319C181.446 48.563 181.446 48.1089 181.446 47.6402C181.458 47.0918 181.458 46.5464 181.458 45.989V14.3957C181.458 13.8429 181.458 13.2945 181.446 12.7475C181.446 12.2846 181.446 11.8203 181.44 11.3574C181.422 10.3444 181.329 9.33424 181.16 8.33521C180.996 7.33564 180.681 6.36683 180.226 5.46201C179.294 3.64611 177.816 2.16798 176.001 1.23551C175.093 0.778483 174.122 0.459469 173.12 0.289008C172.122 0.122627 171.113 0.0334186 170.101 0.0221756C169.641 0.0148089 169.169 0.00596281 168.709 0.00301915C168.167 0 167.615 0.000196245 167.073 0.000196245Z" fill="#A6A6A6"/>
<path d="M13.565 59.062C13.105 59.062 12.6562 59.0561 12.1999 59.0458C11.2546 59.0335 10.3115 58.9512 9.37829 58.7996C8.50815 58.6498 7.66523 58.371 6.87732 57.9725C6.09663 57.5773 5.38458 57.0592 4.76844 56.4379C4.14339 55.8239 3.623 55.1118 3.22791 54.3298C2.82846 53.5427 2.55202 52.699 2.40821 51.8281C2.25291 50.8923 2.16889 49.9461 2.15687 48.9977C2.1473 48.6793 2.13477 47.6193 2.13477 47.6193V12.7473C2.13477 12.7473 2.14811 11.7035 2.15694 11.3969C2.16845 10.4499 2.25199 9.50518 2.40682 8.57087C2.55089 7.69762 2.82755 6.8515 3.22721 6.06181C3.62086 5.28033 4.13835 4.56768 4.75964 3.9515C5.38023 3.32947 6.09456 2.80864 6.87658 2.40801C7.66268 2.01082 8.50401 1.73402 9.37238 1.58689C10.3086 1.43377 11.255 1.35099 12.2036 1.33923L13.5657 1.3208H168.702L170.081 1.33997C171.021 1.35114 171.959 1.43319 172.886 1.58541C173.763 1.73439 174.613 2.01311 175.408 2.41243C176.975 3.21982 178.25 4.49719 179.054 6.0655C179.447 6.84973 179.72 7.68895 179.862 8.55466C180.019 9.49664 180.106 10.4488 180.124 11.4035C180.129 11.8311 180.129 12.2903 180.129 12.7473C180.141 13.3134 180.141 13.8522 180.141 14.3954V45.9888C180.141 46.5372 180.141 47.0723 180.129 47.6119C180.129 48.1028 180.129 48.5525 180.123 49.0153C180.105 49.953 180.019 50.8882 179.865 51.8133C179.724 52.6905 179.449 53.5407 179.05 54.3343C178.652 55.1078 178.134 55.8138 177.517 56.4261C176.9 57.0507 176.187 57.5719 175.404 57.9697C174.611 58.3712 173.762 58.651 172.886 58.7996C171.953 58.952 171.01 59.0343 170.064 59.0458C169.622 59.0561 169.159 59.062 168.71 59.062L167.073 59.065L13.565 59.062Z" fill="black"/>
<path d="M38.2068 30.6453C38.223 29.3854 38.5577 28.15 39.1797 27.0541C39.8016 25.9582 40.6907 25.0375 41.7642 24.3775C41.0822 23.4036 40.1826 22.6021 39.1367 22.0367C38.0909 21.4713 36.9276 21.1575 35.7392 21.1203C33.2043 20.8543 30.7468 22.6372 29.455 22.6372C28.1383 22.6372 26.1494 21.1468 24.0077 21.1908C22.6224 21.2356 21.2723 21.6384 20.089 22.3601C18.9057 23.0817 17.9295 24.0976 17.2555 25.3087C14.336 30.3634 16.5137 37.7921 19.3104 41.8779C20.7096 43.8786 22.3449 46.1135 24.4846 46.0342C26.5785 45.9474 27.3605 44.6991 29.888 44.6991C32.392 44.6991 33.1257 46.0342 35.3089 45.9839C37.5557 45.9474 38.9713 43.9742 40.3214 41.9546C41.3267 40.529 42.1004 38.9534 42.6136 37.2862C41.3082 36.7341 40.1943 35.81 39.4106 34.6291C38.627 33.4481 38.2083 32.0626 38.2068 30.6453Z" fill="white"/>
<path d="M34.0826 18.4329C35.3076 16.9623 35.9112 15.072 35.765 13.1636C33.8934 13.3602 32.1645 14.2547 30.9229 15.6689C30.3159 16.3598 29.8509 17.1635 29.5547 18.0342C29.2584 18.9049 29.1367 19.8254 29.1964 20.7431C30.1326 20.7528 31.0587 20.5499 31.9051 20.1497C32.7514 19.7495 33.4959 19.1625 34.0826 18.4329Z" fill="white"/>
<path d="M64.675 40.9691H57.5296L55.8136 46.0359H52.7871L59.5551 27.29H62.6996L69.4676 46.0359H66.3895L64.675 40.9691ZM58.2696 38.631H63.9335L61.1414 30.408H61.0633L58.2696 38.631Z" fill="white"/>
<path d="M84.0832 39.2035C84.0832 43.4507 81.8099 46.1794 78.3795 46.1794C77.5105 46.2249 76.6463 46.0247 75.8858 45.6018C75.1253 45.1789 74.4992 44.5504 74.0793 43.7882H74.0144V50.5577H71.209V32.3692H73.9245V34.6424H73.9761C74.4153 33.8839 75.0519 33.2586 75.8182 32.8331C76.5845 32.4077 77.4519 32.1979 78.3279 32.2262C81.7966 32.2262 84.0832 34.9682 84.0832 39.2035ZM81.1996 39.2035C81.1996 36.4365 79.7697 34.6173 77.5879 34.6173C75.4444 34.6173 74.0026 36.4748 74.0026 39.2035C74.0026 41.9573 75.4444 43.8015 77.5879 43.8015C79.7697 43.8015 81.1996 41.9956 81.1996 39.2035Z" fill="white"/>
<path d="M99.1261 39.2035C99.1261 43.4507 96.8529 46.1794 93.4225 46.1794C92.5535 46.2248 91.6893 46.0247 90.9287 45.6018C90.1682 45.1789 89.5422 44.5504 89.1223 43.7882H89.0573V50.5577H86.252V32.3691H88.9674V34.6423H89.019C89.4582 33.8838 90.0949 33.2586 90.8612 32.8331C91.6275 32.4077 92.4948 32.1979 93.3708 32.2262C96.8396 32.2262 99.1261 34.9681 99.1261 39.2035ZM96.2426 39.2035C96.2426 36.4365 94.8126 34.6173 92.6308 34.6173C90.4873 34.6173 89.0456 36.4748 89.0456 39.2035C89.0456 41.9573 90.4873 43.8015 92.6308 43.8015C94.8126 43.8015 96.2426 41.9956 96.2426 39.2035Z" fill="white"/>
<path d="M109.069 40.8129C109.277 42.6719 111.083 43.8924 113.551 43.8924C115.915 43.8924 117.616 42.6718 117.616 40.9956C117.616 39.5406 116.59 38.6694 114.161 38.0723L111.731 37.4871C108.289 36.6556 106.691 35.0458 106.691 32.4335C106.691 29.1991 109.51 26.9775 113.512 26.9775C117.473 26.9775 120.189 29.1991 120.28 32.4335H117.448C117.279 30.5628 115.732 29.4336 113.472 29.4336C111.212 29.4336 109.666 30.5761 109.666 32.2389C109.666 33.5642 110.654 34.3441 113.07 34.9411L115.135 35.4482C118.981 36.3578 120.58 37.9028 120.58 40.6447C120.58 44.1518 117.786 46.3484 113.343 46.3484C109.185 46.3484 106.379 44.2034 106.197 40.8128L109.069 40.8129Z" fill="white"/>
<path d="M126.634 29.1348V32.3691H129.233V34.5908H126.634V42.1254C126.634 43.2959 127.154 43.8413 128.297 43.8413C128.605 43.8359 128.913 43.8143 129.22 43.7764V45.9847C128.706 46.0807 128.184 46.1242 127.661 46.1145C124.894 46.1145 123.815 45.0752 123.815 42.4246V34.5908H121.828V32.3691H123.815V29.1348H126.634Z" fill="white"/>
<path d="M130.738 39.2031C130.738 34.9029 133.271 32.2007 137.22 32.2007C141.183 32.2007 143.704 34.9028 143.704 39.2031C143.704 43.5151 141.196 46.2055 137.22 46.2055C133.246 46.2055 130.738 43.5151 130.738 39.2031ZM140.845 39.2031C140.845 36.2532 139.494 34.5122 137.22 34.5122C134.947 34.5122 133.597 36.2665 133.597 39.2031C133.597 42.1647 134.947 43.8925 137.22 43.8925C139.494 43.8925 140.845 42.1647 140.845 39.2031Z" fill="white"/>
<path d="M146.016 32.369H148.691V34.6953H148.756C148.937 33.9687 149.363 33.3267 149.962 32.877C150.56 32.4273 151.295 32.1974 152.044 32.226C152.367 32.2249 152.689 32.26 153.005 32.3307V34.9547C152.597 34.83 152.171 34.7728 151.744 34.7852C151.337 34.7687 150.93 34.8405 150.553 34.9959C150.176 35.1512 149.837 35.3863 149.559 35.685C149.282 35.9837 149.072 36.339 148.944 36.7265C148.817 37.1139 148.775 37.5244 148.821 37.9297V46.0363H146.016L146.016 32.369Z" fill="white"/>
<path d="M165.94 42.0218C165.563 44.5028 163.146 46.2055 160.055 46.2055C156.079 46.2055 153.611 43.5416 153.611 39.268C153.611 34.981 156.092 32.2007 159.937 32.2007C163.718 32.2007 166.096 34.7982 166.096 38.9422V39.9033H156.443V40.0729C156.399 40.5759 156.462 41.0826 156.628 41.5594C156.794 42.0361 157.06 42.4721 157.408 42.8382C157.756 43.2044 158.177 43.4923 158.645 43.683C159.112 43.8737 159.615 43.9627 160.12 43.9441C160.783 44.0062 161.448 43.8527 162.017 43.5063C162.585 43.16 163.027 42.6393 163.276 42.0217L165.94 42.0218ZM156.457 37.9427H163.289C163.315 37.4904 163.246 37.0378 163.088 36.6133C162.93 36.1888 162.686 35.8015 162.371 35.4758C162.056 35.1501 161.678 34.893 161.259 34.7206C160.84 34.5481 160.39 34.4642 159.937 34.4739C159.48 34.4712 159.027 34.5589 158.605 34.7321C158.182 34.9054 157.798 35.1606 157.474 35.4831C157.15 35.8056 156.894 36.189 156.719 36.6111C156.545 37.0333 156.455 37.4858 156.457 37.9427Z" fill="white"/>
<path d="M57.9176 13.1797C58.5058 13.1374 59.0959 13.2263 59.6456 13.4398C60.1952 13.6533 60.6907 13.9861 61.0961 14.4143C61.5016 14.8424 61.8069 15.3552 61.9902 15.9157C62.1735 16.4762 62.2301 17.0703 62.1559 17.6553C62.1559 20.5329 60.6006 22.187 57.9176 22.187H54.6641V13.1797H57.9176ZM56.0631 20.9132H57.7613C58.1816 20.9383 58.6022 20.8694 58.9925 20.7115C59.3828 20.5536 59.7329 20.3106 60.0175 20.0003C60.302 19.69 60.5138 19.3201 60.6373 18.9176C60.7609 18.5152 60.7932 18.0902 60.7318 17.6737C60.7887 17.2588 60.7532 16.8364 60.6277 16.4369C60.5023 16.0374 60.29 15.6705 60.0061 15.3627C59.7222 15.0549 59.3737 14.8136 58.9856 14.6563C58.5975 14.4989 58.1795 14.4293 57.7613 14.4525H56.0631V20.9132Z" fill="white"/>
<path d="M63.7359 18.7857C63.6931 18.339 63.7442 17.8883 63.8859 17.4625C64.0276 17.0367 64.2566 16.6452 64.5585 16.3131C64.8603 15.981 65.2282 15.7157 65.6386 15.5341C66.049 15.3526 66.4927 15.2588 66.9415 15.2588C67.3902 15.2588 67.834 15.3526 68.2444 15.5341C68.6548 15.7157 69.0227 15.981 69.3245 16.3131C69.6264 16.6452 69.8554 17.0367 69.9971 17.4625C70.1388 17.8883 70.1899 18.339 70.1471 18.7857C70.1907 19.2329 70.1402 19.6842 69.9989 20.1107C69.8576 20.5372 69.6287 20.9294 69.3268 21.2622C69.0249 21.5949 68.6567 21.8608 68.2459 22.0427C67.8351 22.2247 67.3908 22.3187 66.9415 22.3187C66.4922 22.3187 66.0479 22.2247 65.6371 22.0427C65.2263 21.8608 64.8581 21.5949 64.5562 21.2622C64.2543 20.9294 64.0254 20.5372 63.8841 20.1107C63.7428 19.6842 63.6923 19.2329 63.7359 18.7857ZM68.7673 18.7857C68.7673 17.3123 68.1054 16.4506 66.9437 16.4506C65.7776 16.4506 65.1217 17.3123 65.1217 18.7857C65.1217 20.271 65.7777 21.126 66.9437 21.126C68.1054 21.126 68.7673 20.2651 68.7673 18.7857Z" fill="white"/>
<path d="M78.669 22.1872H77.2774L75.8725 17.1808H75.7663L74.3673 22.1872H72.9889L71.1152 15.3896H72.4759L73.6936 20.5765H73.7939L75.1914 15.3896H76.4784L77.8759 20.5765H77.982L79.1938 15.3896H80.5353L78.669 22.1872Z" fill="white"/>
<path d="M82.1133 15.3899H83.4047V16.4697H83.5049C83.675 16.0819 83.9618 15.7567 84.3254 15.5397C84.689 15.3226 85.1113 15.2243 85.5334 15.2586C85.8642 15.2338 86.1963 15.2836 86.5051 15.4046C86.814 15.5255 87.0917 15.7143 87.3176 15.9571C87.5436 16.1999 87.712 16.4905 87.8104 16.8072C87.9089 17.1239 87.9348 17.4588 87.8862 17.7869V22.1873H86.5447V18.1238C86.5447 17.0314 86.07 16.4881 85.0779 16.4881C84.8533 16.4777 84.6292 16.5159 84.4207 16.6002C84.2123 16.6845 84.0246 16.8128 83.8705 16.9764C83.7163 17.14 83.5993 17.335 83.5276 17.5481C83.4558 17.7611 83.431 17.9872 83.4548 18.2107V22.1874H82.1133L82.1133 15.3899Z" fill="white"/>
<path d="M90.0234 12.7363H91.365V22.1874H90.0234V12.7363Z" fill="white"/>
<path d="M93.23 18.7858C93.1873 18.3391 93.2384 17.8884 93.3801 17.4626C93.5218 17.0367 93.7509 16.6452 94.0528 16.3131C94.3546 15.9811 94.7226 15.7157 95.133 15.5341C95.5434 15.3526 95.9872 15.2588 96.436 15.2588C96.8848 15.2588 97.3286 15.3526 97.739 15.5341C98.1494 15.7157 98.5173 15.9811 98.8192 16.3131C99.121 16.6452 99.3502 17.0367 99.4918 17.4626C99.6335 17.8884 99.6847 18.3391 99.642 18.7858C99.6855 19.233 99.6349 19.6844 99.4936 20.1109C99.3523 20.5374 99.1233 20.9296 98.8213 21.2623C98.5194 21.595 98.1512 21.8609 97.7404 22.0428C97.3296 22.2248 96.8853 22.3188 96.436 22.3188C95.9867 22.3188 95.5423 22.2248 95.1315 22.0428C94.7207 21.8609 94.3525 21.595 94.0506 21.2623C93.7487 20.9296 93.5197 20.5374 93.3784 20.1109C93.237 19.6844 93.1865 19.233 93.23 18.7858ZM98.2614 18.7858C98.2614 17.3124 97.5995 16.4507 96.4378 16.4507C95.2717 16.4507 94.6158 17.3124 94.6158 18.7859C94.6158 20.2711 95.2718 21.1261 96.4378 21.1261C97.5995 21.1261 98.2614 20.2652 98.2614 18.7858Z" fill="white"/>
<path d="M101.053 20.2651C101.053 19.0416 101.964 18.3362 103.581 18.2359L105.422 18.1298V17.543C105.422 16.8251 104.948 16.4197 104.031 16.4197C103.282 16.4197 102.763 16.6947 102.614 17.1752H101.315C101.452 16.0077 102.551 15.2588 104.093 15.2588C105.797 15.2588 106.758 16.1072 106.758 17.543V22.1875H105.466V21.2322H105.36C105.145 21.5749 104.842 21.8542 104.484 22.0417C104.125 22.2292 103.723 22.3182 103.319 22.2995C103.033 22.3292 102.745 22.2987 102.472 22.2101C102.199 22.1215 101.948 21.9767 101.734 21.785C101.521 21.5934 101.35 21.3591 101.232 21.0973C101.115 20.8355 101.054 20.552 101.053 20.2651ZM105.422 19.6843V19.116L103.762 19.2221C102.826 19.2848 102.402 19.6032 102.402 20.2025C102.402 20.8143 102.932 21.1703 103.662 21.1703C103.876 21.1919 104.092 21.1703 104.297 21.1068C104.503 21.0433 104.693 20.9391 104.857 20.8004C105.021 20.6618 105.156 20.4915 105.253 20.2998C105.35 20.108 105.408 19.8987 105.422 19.6843Z" fill="white"/>
<path d="M108.521 18.7857C108.521 16.6378 109.626 15.2771 111.343 15.2771C111.768 15.2575 112.19 15.3593 112.559 15.5705C112.928 15.7817 113.229 16.0935 113.428 16.4697H113.528V12.7363H114.869V22.1874H113.584V21.1134H113.478C113.264 21.487 112.952 21.795 112.576 22.0041C112.2 22.2131 111.773 22.3153 111.343 22.2994C109.614 22.2995 108.521 20.9388 108.521 18.7857ZM109.907 18.7857C109.907 20.2275 110.587 21.095 111.723 21.095C112.854 21.095 113.553 20.215 113.553 18.7916C113.553 17.3749 112.847 16.4823 111.723 16.4823C110.594 16.4823 109.907 17.3557 109.907 18.7857Z" fill="white"/>
<path d="M120.419 18.7857C120.377 18.339 120.428 17.8883 120.569 17.4625C120.711 17.0367 120.94 16.6452 121.242 16.3131C121.544 15.981 121.912 15.7157 122.322 15.5341C122.733 15.3526 123.176 15.2588 123.625 15.2588C124.074 15.2588 124.518 15.3526 124.928 15.5341C125.338 15.7157 125.706 15.981 126.008 16.3131C126.31 16.6452 126.539 17.0367 126.681 17.4625C126.822 17.8883 126.873 18.339 126.831 18.7857C126.874 19.2329 126.824 19.6842 126.682 20.1107C126.541 20.5372 126.312 20.9294 126.01 21.2622C125.708 21.5949 125.34 21.8608 124.929 22.0427C124.519 22.2247 124.074 22.3187 123.625 22.3187C123.176 22.3187 122.731 22.2247 122.321 22.0427C121.91 21.8608 121.542 21.5949 121.24 21.2622C120.938 20.9294 120.709 20.5372 120.568 20.1107C120.426 19.6842 120.376 19.2329 120.419 18.7857ZM125.451 18.7857C125.451 17.3123 124.789 16.4506 123.627 16.4506C122.461 16.4506 121.805 17.3123 121.805 18.7857C121.805 20.271 122.461 21.126 123.627 21.126C124.789 21.126 125.451 20.2651 125.451 18.7857Z" fill="white"/>
<path d="M128.631 15.3899H129.922V16.4697H130.023C130.193 16.0819 130.479 15.7567 130.843 15.5397C131.207 15.3226 131.629 15.2243 132.051 15.2586C132.382 15.2338 132.714 15.2836 133.023 15.4046C133.332 15.5255 133.609 15.7143 133.835 15.9571C134.061 16.1999 134.23 16.4905 134.328 16.8072C134.426 17.1239 134.452 17.4588 134.404 17.7869V22.1873H133.062V18.1238C133.062 17.0314 132.588 16.4881 131.595 16.4881C131.371 16.4777 131.147 16.5159 130.938 16.6002C130.73 16.6845 130.542 16.8128 130.388 16.9764C130.234 17.14 130.117 17.335 130.045 17.5481C129.973 17.7611 129.949 17.9872 129.972 18.2107V22.1874H128.631V15.3899Z" fill="white"/>
<path d="M141.985 13.6973V15.4206H143.457V16.5506H141.985V20.0459C141.985 20.7579 142.278 21.0697 142.946 21.0697C143.117 21.0692 143.288 21.0588 143.457 21.0387V22.1562C143.216 22.1993 142.972 22.2222 142.728 22.2247C141.236 22.2247 140.642 21.6999 140.642 20.3894V16.5505H139.562V15.4205H140.642V13.6973H141.985Z" fill="white"/>
<path d="M145.289 12.7363H146.619V16.4823H146.725C146.903 16.0908 147.198 15.7638 147.569 15.5459C147.94 15.328 148.369 15.2298 148.798 15.2646C149.127 15.2467 149.456 15.3016 149.761 15.4255C150.066 15.5493 150.34 15.739 150.564 15.9811C150.788 16.2231 150.955 16.5115 151.054 16.8257C151.154 17.1399 151.182 17.4721 151.139 17.7987V22.1874H149.796V18.1297C149.796 17.0439 149.29 16.494 148.342 16.494C148.112 16.4751 147.88 16.5068 147.663 16.5869C147.446 16.667 147.249 16.7935 147.086 16.9577C146.923 17.1218 146.797 17.3196 146.719 17.5372C146.64 17.7548 146.61 17.9869 146.631 18.2174V22.1874H145.289L145.289 12.7363Z" fill="white"/>
<path d="M158.962 20.3522C158.78 20.9735 158.385 21.5109 157.846 21.8704C157.308 22.2299 156.66 22.3886 156.017 22.3188C155.569 22.3306 155.124 22.2448 154.712 22.0674C154.301 21.89 153.933 21.6252 153.634 21.2914C153.336 20.9576 153.113 20.5627 152.982 20.1343C152.851 19.7058 152.815 19.254 152.877 18.8102C152.817 18.3651 152.854 17.9123 152.984 17.4826C153.115 17.0528 153.336 16.6562 153.633 16.3194C153.931 15.9827 154.297 15.7137 154.707 15.5308C155.117 15.3478 155.562 15.2551 156.011 15.2589C157.902 15.2589 159.043 16.5511 159.043 18.6856V19.1537H154.243V19.2289C154.222 19.4784 154.254 19.7295 154.335 19.9661C154.417 20.2027 154.547 20.4196 154.718 20.603C154.888 20.7863 155.095 20.932 155.325 21.0308C155.555 21.1295 155.803 21.179 156.054 21.1763C156.374 21.2148 156.7 21.157 156.987 21.0103C157.275 20.8635 157.513 20.6345 157.671 20.3522L158.962 20.3522ZM154.243 18.1616H157.677C157.693 17.9334 157.662 17.7043 157.586 17.4889C157.509 17.2734 157.387 17.0764 157.23 16.9106C157.072 16.7448 156.882 16.6137 156.671 16.5259C156.459 16.4381 156.232 16.3954 156.003 16.4007C155.771 16.3978 155.541 16.4413 155.326 16.5288C155.111 16.6163 154.916 16.7459 154.752 16.91C154.588 17.0741 154.458 17.2694 154.371 17.4843C154.284 17.6993 154.24 17.9296 154.243 18.1616Z" fill="white"/>
</svg>
