<svg width="96" height="96" viewBox="0 0 96 96" fill="none" xmlns="http://www.w3.org/2000/svg">
<g filter="url(#filter0_d_8_27824)">
<path d="M15.0001 70.6802C15.0001 73.067 16.9501 75.0002 19.3525 75.0002H19.4151C16.9758 75.0002 15.0001 73.067 15.0001 70.6802Z" fill="#FBBC05"/>
<path d="M52.4024 37.1999V48.4787L67.6084 36.2135V25.32C67.6084 22.9332 65.6584 21 63.2559 21H30.3128L30.2833 37.1999H52.4024Z" fill="#FBBC05"/>
<path d="M52.4023 59.7621H30.2465L30.2207 75.0009H63.2558C65.662 75.0009 67.6083 73.0677 67.6083 70.6809V60.8457L52.4023 48.4834V59.7621Z" fill="#34A853"/>
<path d="M30.3126 21L15 37.1999H30.2869L30.3126 21Z" fill="#EA4335"/>
<path d="M15.0001 59.7612V70.68C15.0001 73.0668 16.9758 75 19.4151 75H30.2208L30.2466 59.7612H15.0001Z" fill="#1967D2"/>
<path d="M30.287 37.1997H15.0001V59.7608H30.2466L30.287 37.1997Z" fill="#4285F4"/>
<path d="M80.9784 66.8399V29.7601C80.1212 24.8389 74.7239 30.4801 74.7239 30.4801L67.6121 36.2148V60.8423L77.7923 69.1187C81.4678 69.6011 80.9784 66.8399 80.9784 66.8399Z" fill="#34A853"/>
<path d="M52.4023 48.4788L67.612 60.8448V36.2173L52.4023 48.4788Z" fill="#188038"/>
</g>
<defs>
<filter id="filter0_d_8_27824" x="-2" y="-1" width="100" height="100" filterUnits="userSpaceOnUse" color-interpolation-filters="sRGB">
<feFlood flood-opacity="0" result="BackgroundImageFix"/>
<feColorMatrix in="SourceAlpha" type="matrix" values="0 0 0 0 0 0 0 0 0 0 0 0 0 0 0 0 0 0 127 0" result="hardAlpha"/>
<feOffset dy="1"/>
<feGaussianBlur stdDeviation="1"/>
<feColorMatrix type="matrix" values="0 0 0 0 0.0627451 0 0 0 0 0.0941176 0 0 0 0 0.156863 0 0 0 0.05 0"/>
<feBlend mode="normal" in2="BackgroundImageFix" result="effect1_dropShadow_8_27824"/>
<feBlend mode="normal" in="SourceGraphic" in2="effect1_dropShadow_8_27824" result="shape"/>
</filter>
</defs>
</svg>
