<?xml version="1.0" encoding="utf-8"?>
<!-- Generator: Adobe Illustrator 24.3.0, SVG Export Plug-In . SVG Version: 6.00 Build 0)  -->
<svg version="1.1" id="Layer_1" xmlns="http://www.w3.org/2000/svg" xmlns:xlink="http://www.w3.org/1999/xlink" x="0px" y="0px"
	 viewBox="0 0 1210 590" style="enable-background:new 0 0 1210 590;" xml:space="preserve">
<style type="text/css">
	.st0{fill:#ffffff;}
	.st1{fill:#FFFFFF;}
	.st2{opacity:0.8;fill:url(#SVGID_1_);}
	.st3{opacity:0.8;fill:url(#SVGID_2_);}
	.st4{opacity:0.8;fill:url(#SVGID_3_);}
	.st5{opacity:0.8;fill:url(#SVGID_4_);}
	.st6{opacity:0.8;fill:url(#SVGID_5_);}
	.st7{opacity:0.8;fill:url(#SVGID_6_);}
</style>
<g>
	<g>
		<path class="st0" d="M696.52,203v47.4c0,6.16-3.44,9.6-9.6,9.6h-9.29c-6.16,0-9.6-3.45-9.6-9.6v-48.86
			c0-14.93-6.37-21.61-20.15-21.61c-13.78,0-18.9,6.68-18.9,21.61v48.86c0,6.16-3.45,9.6-9.6,9.6h-9.19c-6.16,0-9.6-3.45-9.6-9.6
			v-48.86c0-14.93-5.12-21.61-18.9-21.61c-13.78,0-20.15,6.68-20.15,21.61v48.86c0,6.16-3.45,9.6-9.61,9.6h-9.29
			c-6.16,0-9.61-3.45-9.61-9.6V203c0-34.87,18.06-47.5,46.15-47.5c18.58,0,29.44,5.32,35.6,14.72c6.05-9.4,17.02-14.72,35.5-14.72
			C678.46,155.5,696.52,168.13,696.52,203z"/>
		<path class="st0" d="M790.99,218.14l-44.16,4.59c3.76,11.69,13.26,15.87,27.14,15.87c6.79,0,14.93-1.15,23.91-3.34
			c6.79-1.57,10.86,1.36,10.86,8.14v3.13c0,5.64-2.61,9.29-8.14,10.75c-11.28,3.03-21.92,4.59-31.74,4.59
			c-31.63,0-52.83-17.23-52.83-53.14c0-33.93,17.96-53.24,53.04-53.24c29.44,0,46.88,13.78,46.88,39.88
			C815.94,209.99,809.78,216.15,790.99,218.14z M788.48,192.66c0-9.92-6.05-15.24-19.42-15.24c-14.51,0-22.24,6.58-23.8,24.22
			l36.02-3.65C787.33,197.36,788.48,196.21,788.48,192.66z"/>
		<path class="st0" d="M907.39,218.14l-44.16,4.59c3.76,11.69,13.26,15.87,27.14,15.87c6.79,0,14.93-1.15,23.91-3.34
			c6.79-1.57,10.86,1.36,10.86,8.14v3.13c0,5.64-2.61,9.29-8.14,10.75c-11.28,3.03-21.92,4.59-31.74,4.59
			c-31.63,0-52.83-17.23-52.83-53.14c0-33.93,17.96-53.24,53.04-53.24c29.44,0,46.88,13.78,46.88,39.88
			C932.34,209.99,926.18,216.15,907.39,218.14z M904.88,192.66c0-9.92-6.05-15.24-19.42-15.24c-14.51,0-22.24,6.58-23.8,24.22
			l36.02-3.65C903.73,197.36,904.88,196.21,904.88,192.66z"/>
		<path class="st0" d="M1008.96,181.18h-28.4v40.92c0,10.65,4.7,15.14,16.18,15.14c5.53,0,9.08-1.15,12.74-1.15
			c6.47,0,8.98,2.51,8.98,7.62v5.22c0,5.32-2.51,9.19-7.73,10.23c-33.2,7.93-59.72-0.52-59.72-37.06v-78.93
			c0-6.16,3.45-9.6,9.61-9.6h10.33c6.16,0,9.61,3.45,9.61,9.6v14.2h28.4c6.16,0,9.61,3.45,9.61,9.6v4.59
			C1018.57,177.73,1015.12,181.18,1008.96,181.18z"/>
		<path class="st0" d="M696.52,396.91v47.4c0,6.16-3.44,9.6-9.6,9.6h-9.29c-6.16,0-9.6-3.45-9.6-9.6v-48.86
			c0-14.93-6.37-21.61-20.15-21.61c-13.78,0-18.9,6.68-18.9,21.61v48.86c0,6.16-3.45,9.6-9.6,9.6h-9.19c-6.16,0-9.6-3.45-9.6-9.6
			v-48.86c0-14.93-5.12-21.61-18.9-21.61c-13.78,0-20.15,6.68-20.15,21.61v48.86c0,6.16-3.45,9.6-9.61,9.6h-9.29
			c-6.16,0-9.61-3.45-9.61-9.6v-47.4c0-34.87,18.06-47.5,46.15-47.5c18.58,0,29.44,5.32,35.6,14.72c6.05-9.4,17.02-14.72,35.5-14.72
			C678.46,349.41,696.52,362.04,696.52,396.91z"/>
		<path class="st0" d="M790.99,412.05l-44.16,4.59c3.76,11.69,13.26,15.87,27.14,15.87c6.79,0,14.93-1.15,23.91-3.34
			c6.79-1.57,10.86,1.36,10.86,8.14v3.13c0,5.64-2.61,9.29-8.14,10.75c-11.28,3.03-21.92,4.59-31.74,4.59
			c-31.63,0-52.83-17.23-52.83-53.14c0-33.93,17.96-53.24,53.04-53.24c29.44,0,46.88,13.78,46.88,39.88
			C815.94,403.91,809.78,410.06,790.99,412.05z M788.48,386.57c0-9.92-6.05-15.24-19.42-15.24c-14.51,0-22.24,6.58-23.8,24.22
			l36.02-3.65C787.33,391.27,788.48,390.12,788.48,386.57z"/>
		<path class="st0" d="M998.11,396.91v47.4c0,6.16-3.44,9.6-9.6,9.6h-9.29c-6.16,0-9.6-3.45-9.6-9.6v-48.86
			c0-14.93-6.37-21.61-20.15-21.61c-13.78,0-18.9,6.68-18.9,21.61v48.86c0,6.16-3.45,9.6-9.6,9.6h-9.19c-6.16,0-9.6-3.45-9.6-9.6
			v-48.86c0-14.93-5.12-21.61-18.9-21.61c-13.78,0-20.15,6.68-20.15,21.61v48.86c0,6.16-3.45,9.6-9.61,9.6h-9.29
			c-6.16,0-9.61-3.45-9.61-9.6v-47.4c0-34.87,18.06-47.5,46.15-47.5c18.58,0,29.44,5.32,35.6,14.72c6.05-9.4,17.02-14.72,35.5-14.72
			C980.05,349.41,998.11,362.04,998.11,396.91z"/>
		<path class="st0" d="M1017.62,402.65c0-33.93,18.69-53.24,52.83-53.24c34.14,0,52.83,19.31,52.83,53.24
			c0,33.83-18.69,53.14-52.83,53.14C1036.31,455.79,1017.62,436.48,1017.62,402.65z M1093.83,402.65c0-20.25-7.73-28.81-23.39-28.81
			s-23.39,8.56-23.39,28.81c0,20.04,7.73,28.71,23.39,28.71S1093.83,422.7,1093.83,402.65z"/>
	</g>
	<g>
		<path class="st1" d="M444.93,154.98L444.93,154.98c-10.96-11.28-25.52-16.92-40.1-16.9c-0.18,0-0.37-0.01-0.55-0.01
			c-0.41,0-0.82,0.02-1.23,0.03c-0.02,0-0.04,0-0.05,0c-17.07,0.39-32.25,8.43-42.23,20.84L270.15,247l-95.84-93.15
			c-11.06-10.75-25.43-15.99-39.73-15.78c-0.09,0-0.18-0.01-0.27-0.01c-30.83,0-55.82,24.99-55.82,55.82v251.7
			c0,30.83,24.99,55.82,55.82,55.82s55.82-24.99,55.82-55.82V324.91l33.26,32.32c1.75,2.54,3.73,4.98,5.95,7.26l0,0
			c11.14,11.46,26,17.1,40.81,16.9c14.81,0.2,29.67-5.44,40.81-16.9v0c2.22-2.29,4.2-4.72,5.95-7.26l31.55-30.66v119.01
			c0,30.83,24.99,55.82,55.82,55.82s55.82-24.99,55.82-55.82V202.12C462.57,185.5,457.55,167.96,444.93,154.98z"/>
		<g>
			<linearGradient id="SVGID_1_" gradientUnits="userSpaceOnUse" x1="134.7282" y1="138.0645" x2="134.7282" y2="501.4051">
				<stop  offset="1.225392e-06" style="stop-color:#82D8F1"/>
				<stop  offset="1" style="stop-color:#D1FFFF"/>
			</linearGradient>
			<path class="st2" d="M134.73,501.41L134.73,501.41c-30.83,0-55.82-24.99-55.82-55.82v-251.7c0-30.83,24.99-55.82,55.82-55.82h0
				c30.83,0,55.82,24.99,55.82,55.82v251.7C190.55,476.41,165.56,501.41,134.73,501.41z"/>
			<linearGradient id="SVGID_2_" gradientUnits="userSpaceOnUse" x1="404.6964" y1="138.0645" x2="404.6964" y2="501.4051">
				<stop  offset="1.225392e-06" style="stop-color:#82D8F1"/>
				<stop  offset="1" style="stop-color:#D1FFFF"/>
			</linearGradient>
			<path class="st3" d="M404.7,501.41L404.7,501.41c-30.83,0-55.82-24.99-55.82-55.82v-251.7c0-30.83,24.99-55.82,55.82-55.82h0
				c30.83,0,55.82,24.99,55.82,55.82v251.7C460.52,476.41,435.53,501.41,404.7,501.41z"/>
			<linearGradient id="SVGID_3_" gradientUnits="userSpaceOnUse" x1="79.9995" y1="259.7402" x2="327.1668" y2="259.7402">
				<stop  offset="1.150803e-06" style="stop-color:#648BF2"/>
				<stop  offset="0.5011" style="stop-color:#05DAEF"/>
				<stop  offset="1" style="stop-color:#FDD2FF"/>
			</linearGradient>
			<path class="st4" d="M311.38,364.5L311.38,364.5c-21.49,22.11-56.83,22.61-78.93,1.13L96.92,233.92
				c-22.11-21.49-22.61-56.83-1.13-78.93l0,0c21.49-22.11,56.83-22.61,78.93-1.13l135.53,131.71
				C332.36,307.05,332.86,342.39,311.38,364.5z"/>
			<linearGradient id="SVGID_4_" gradientUnits="userSpaceOnUse" x1="404.1665" y1="138.0645" x2="404.1665" y2="450.6592">
				<stop  offset="6.819570e-07" style="stop-color:#707AF5"/>
				<stop  offset="1" style="stop-color:#A9F6FC"/>
			</linearGradient>
			<path class="st5" d="M460.3,450.66V188.81c0,0-6.09-44.66-56.84-50.75c0,0-48.72,0-54.81,52.78s22.33,91.34,42.63,107.58
				C411.58,314.66,464.35,361.35,460.3,450.66z"/>
			
				<linearGradient id="SVGID_5_" gradientUnits="userSpaceOnUse" x1="2390.2764" y1="138.0645" x2="2390.2764" y2="450.6592" gradientTransform="matrix(-1 0 0 1 2524.6965 0)">
				<stop  offset="6.819570e-07" style="stop-color:#707AF5"/>
				<stop  offset="1" style="stop-color:#A9F6FC"/>
			</linearGradient>
			<path class="st6" d="M78.29,450.66V188.81c0,0,6.09-44.66,56.84-50.75c0,0,48.72,0,54.81,52.78s-22.33,91.34-42.63,107.58
				C127.01,314.66,74.23,361.35,78.29,450.66z"/>
			<linearGradient id="SVGID_6_" gradientUnits="userSpaceOnUse" x1="337.5523" y1="381.4159" x2="337.5523" y2="138.0645">
				<stop  offset="9.483465e-07" style="stop-color:#FFD1FF"/>
				<stop  offset="1" style="stop-color:#A553E6"/>
			</linearGradient>
			<path class="st7" d="M229.76,364.5L229.76,364.5c21.49,22.11,56.83,22.61,78.93,1.13l135.53-131.71
				c22.11-21.49,22.61-56.83,1.13-78.93l0,0c-21.49-22.11-56.83-22.61-78.93-1.13L230.89,285.56
				C208.78,307.05,208.27,342.39,229.76,364.5z"/>
		</g>
	</g>
</g>
</svg>
