<svg width="30" height="31" viewBox="0 0 30 31" fill="none" xmlns="http://www.w3.org/2000/svg">
<path fill-rule="evenodd" clip-rule="evenodd" d="M15 30.5C18.9782 30.5 22.7936 28.9196 25.6066 26.1066C28.4196 23.2936 30 19.4782 30 15.5C30 11.5218 28.4196 7.70644 25.6066 4.8934C22.7936 2.08035 18.9782 0.5 15 0.5C11.0218 0.5 7.20644 2.08035 4.3934 4.8934C1.58035 7.70644 0 11.5218 0 15.5C0 19.4782 1.58035 23.2936 4.3934 26.1066C7.20644 28.9196 11.0218 30.5 15 30.5ZM16.3256 11.2006C16.6672 10.847 16.8562 10.3734 16.8519 9.88175C16.8476 9.39013 16.6504 8.91986 16.3028 8.57222C15.9551 8.22458 15.4849 8.02738 14.9933 8.02311C14.5016 8.01884 14.028 8.20783 13.6744 8.54938L8.04938 14.1744C7.69787 14.526 7.5004 15.0028 7.5004 15.5C7.5004 15.9972 7.69787 16.474 8.04938 16.8256L13.6744 22.4506C14.028 22.7922 14.5016 22.9812 14.9933 22.9769C15.4849 22.9726 15.9551 22.7754 16.3028 22.4278C16.6504 22.0801 16.8476 21.6099 16.8519 21.1183C16.8562 20.6266 16.6672 20.153 16.3256 19.7994L13.9012 17.375H20.625C21.1223 17.375 21.5992 17.1775 21.9508 16.8258C22.3025 16.4742 22.5 15.9973 22.5 15.5C22.5 15.0027 22.3025 14.5258 21.9508 14.1742C21.5992 13.8225 21.1223 13.625 20.625 13.625H13.9012L16.3256 11.2006Z" fill="#7054F0"/>
</svg>
