<svg width="96" height="96" viewBox="0 0 96 96" fill="none" xmlns="http://www.w3.org/2000/svg">
<path d="M54.75 45.3335C54.75 44.2289 55.6454 43.3335 56.75 43.3335H82C83.1046 43.3335 84 44.2289 84 45.3335V61.3752C84 69.4523 77.4522 76.0002 69.375 76.0002C61.2978 76.0002 54.75 69.4523 54.75 61.3752V45.3335Z" fill="url(#paint0_linear_8_27891)"/>
<path d="M32.25 40.6665C32.25 39.5619 33.1454 38.6665 34.25 38.6665H66.25C67.3546 38.6665 68.25 39.5619 68.25 40.6665V64.9998C68.25 74.941 60.1911 82.9998 50.25 82.9998C40.3089 82.9998 32.25 74.941 32.25 64.9998V40.6665Z" fill="url(#paint1_linear_8_27891)"/>
<ellipse cx="72.75" cy="31.6665" rx="6.75" ry="7" fill="#34439E"/>
<ellipse cx="72.75" cy="31.6665" rx="6.75" ry="7" fill="url(#paint2_linear_8_27891)"/>
<ellipse cx="52.5" cy="26.9998" rx="9" ry="9.33333" fill="url(#paint3_linear_8_27891)"/>
<mask id="mask0_8_27891" style="mask-type:alpha" maskUnits="userSpaceOnUse" x="32" y="13" width="37" height="70">
<path d="M50.25 36.3333C56.4633 36.3333 61.5 31.1101 61.5 24.6667C61.5 18.2232 56.4633 13 50.25 13C44.0367 13 39 18.2232 39 24.6667C39 31.1101 44.0367 36.3333 50.25 36.3333Z" fill="url(#paint4_linear_8_27891)"/>
<path d="M35.0081 38.6667C33.4849 38.6667 32.25 39.9473 32.25 41.5269V64.3333C32.25 74.6428 40.3087 83 50.25 83C60.1913 83 68.25 74.6428 68.25 64.3333V41.5269C68.25 39.9473 67.0151 38.6667 65.4919 38.6667H35.0081Z" fill="url(#paint5_linear_8_27891)"/>
</mask>
<g mask="url(#mask0_8_27891)">
<path d="M27.75 37C27.75 35.3431 29.0931 34 30.75 34H54C55.6569 34 57 35.3431 57 37V73C57 74.6569 55.6569 76 54 76H27.75V37Z" fill="black" fill-opacity="0.3"/>
</g>
<rect x="12" y="29.3335" width="40.5" height="42" rx="2" fill="url(#paint6_linear_8_27891)"/>
<path d="M41.25 38.6665H23.25V42.9476H29.9886V61.9998H34.5114V42.9476H41.25V38.6665Z" fill="white"/>
<defs>
<linearGradient id="paint0_linear_8_27891" x1="54.75" y1="45.0528" x2="84.9928" y2="64.1088" gradientUnits="userSpaceOnUse">
<stop stop-color="#364088"/>
<stop offset="1" stop-color="#6E7EE1"/>
</linearGradient>
<linearGradient id="paint1_linear_8_27891" x1="32.25" y1="58.2755" x2="68.25" y2="58.2755" gradientUnits="userSpaceOnUse">
<stop stop-color="#515FC4"/>
<stop offset="1" stop-color="#7084EA"/>
</linearGradient>
<linearGradient id="paint2_linear_8_27891" x1="66" y1="25.4033" x2="79.352" y2="34.4636" gradientUnits="userSpaceOnUse">
<stop stop-color="#364088"/>
<stop offset="1" stop-color="#6E7EE1"/>
</linearGradient>
<linearGradient id="paint3_linear_8_27891" x1="46.0714" y1="20.3332" x2="58.1305" y2="33.8997" gradientUnits="userSpaceOnUse">
<stop stop-color="#4858AE"/>
<stop offset="1" stop-color="#4E60CE"/>
</linearGradient>
<linearGradient id="paint4_linear_8_27891" x1="42.2143" y1="16.3333" x2="57.2882" y2="33.2915" gradientUnits="userSpaceOnUse">
<stop stop-color="#4858AE"/>
<stop offset="1" stop-color="#4E60CE"/>
</linearGradient>
<linearGradient id="paint5_linear_8_27891" x1="42.2143" y1="16.3333" x2="57.2882" y2="33.2915" gradientUnits="userSpaceOnUse">
<stop stop-color="#4858AE"/>
<stop offset="1" stop-color="#4E60CE"/>
</linearGradient>
<linearGradient id="paint6_linear_8_27891" x1="12" y1="50.3335" x2="52.5" y2="50.3335" gradientUnits="userSpaceOnUse">
<stop stop-color="#2A3887"/>
<stop offset="1" stop-color="#4C56B9"/>
</linearGradient>
</defs>
</svg>
